<?xml version="1.0" encoding="UTF-8" standalone="no"?>
<!-- Created with Inkscape (http://www.inkscape.org/) -->

<svg
   xmlns:dc="http://purl.org/dc/elements/1.1/"
   xmlns:cc="http://creativecommons.org/ns#"
   xmlns:rdf="http://www.w3.org/1999/02/22-rdf-syntax-ns#"
   xmlns:svg="http://www.w3.org/2000/svg"
   xmlns="http://www.w3.org/2000/svg"
   xmlns:sodipodi="http://sodipodi.sourceforge.net/DTD/sodipodi-0.dtd"
   xmlns:inkscape="http://www.inkscape.org/namespaces/inkscape"
   width="3.375in"
   height="3in"
   viewBox="0 0 85.725001 76.200002"
   version="1.1"
   id="svg73307"
   inkscape:version="0.92.4 5da689c313, 2019-01-14"
   sodipodi:docname="density.svg">
  <defs
     id="defs73301">
    <clipPath
       id="clipPath73463"
       clipPathUnits="userSpaceOnUse">
      <path
         inkscape:connector-curvature="0"
         id="path73461"
         d="M -1016,-351 H 1660 V 1068 H -1016 Z" />
    </clipPath>
    <clipPath
       id="clipPath73473"
       clipPathUnits="userSpaceOnUse">
      <path
         inkscape:connector-curvature="0"
         id="path73471"
         d="M 48.53,41.96 H 229.68 V 229.68 H 48.53 Z" />
    </clipPath>
  </defs>
  <sodipodi:namedview
     id="base"
     pagecolor="#ffffff"
     bordercolor="#666666"
     borderopacity="1.0"
     inkscape:pageopacity="0.0"
     inkscape:pageshadow="2"
     inkscape:zoom="0.98994949"
     inkscape:cx="127.73254"
     inkscape:cy="198.28663"
     inkscape:document-units="mm"
     inkscape:current-layer="layer1"
     showgrid="false"
     units="in"
     inkscape:window-width="1880"
     inkscape:window-height="973"
     inkscape:window-x="17"
     inkscape:window-y="87"
     inkscape:window-maximized="0" />
  <metadata
     id="metadata73304">
    <rdf:RDF>
      <cc:Work
         rdf:about="">
        <dc:format>image/svg+xml</dc:format>
        <dc:type
           rdf:resource="http://purl.org/dc/dcmitype/StillImage" />
        <dc:title></dc:title>
      </cc:Work>
    </rdf:RDF>
  </metadata>
  <g
     inkscape:label="Layer 1"
     inkscape:groupmode="layer"
     id="layer1"
     transform="translate(0,-220.79998)">
    <g
       id="g73626"
       transform="matrix(0.83625739,0,0,0.83625739,7.0630384,42.652384)">
      <path
         inkscape:connector-curvature="0"
         id="path73391"
         style="fill:#ffffff;fill-opacity:1;fill-rule:nonzero;stroke:none;stroke-width:0.35277778"
         d="M 17.120306,286.95992 H 81.025999 V 220.73648 H 17.120306 Z" />
      <path
         inkscape:connector-curvature="0"
         id="path73393"
         style="fill:#000000;fill-opacity:1;fill-rule:nonzero;stroke:#000000;stroke-width:0.28222221;stroke-linecap:butt;stroke-linejoin:round;stroke-miterlimit:10;stroke-dasharray:none;stroke-opacity:1"
         d="m 20.02511,286.95992 v 1.23473" />
      <text
         y="292.10828"
         x="18.903387"
         id="text73397"
         style="font-variant:normal;font-weight:normal;font-size:3.52777767px;font-family:'DejaVu Sans';-inkscape-font-specification:DejaVuSans;writing-mode:lr-tb;fill:#000000;fill-opacity:1;fill-rule:nonzero;stroke:none;stroke-width:0.35277778">
        <tspan
           style="stroke-width:0.35277778"
           id="tspan73395"
           y="292.10828"
           x="18.903387">0</tspan>
      </text>
      <path
         inkscape:connector-curvature="0"
         id="path73399"
         style="fill:#000000;fill-opacity:1;fill-rule:nonzero;stroke:#000000;stroke-width:0.28222221;stroke-linecap:butt;stroke-linejoin:round;stroke-miterlimit:10;stroke-dasharray:none;stroke-opacity:1"
         d="m 38.191489,286.95992 v 1.23473" />
      <text
         y="292.10828"
         x="34.826321"
         id="text73403"
         style="font-variant:normal;font-weight:normal;font-size:3.52777767px;font-family:'DejaVu Sans';-inkscape-font-specification:DejaVuSans;writing-mode:lr-tb;fill:#000000;fill-opacity:1;fill-rule:nonzero;stroke:none;stroke-width:0.35277778">
        <tspan
           style="stroke-width:0.35277778"
           id="tspan73401"
           sodipodi:role="line"
           y="292.10828"
           x="34.826321 37.069988 39.313656">500</tspan>
      </text>
      <path
         inkscape:connector-curvature="0"
         id="path73405"
         style="fill:#000000;fill-opacity:1;fill-rule:nonzero;stroke:#000000;stroke-width:0.28222221;stroke-linecap:butt;stroke-linejoin:round;stroke-miterlimit:10;stroke-dasharray:none;stroke-opacity:1"
         d="m 56.357872,286.95992 v 1.23473" />
      <text
         y="292.10828"
         x="51.870979"
         id="text73409"
         style="font-variant:normal;font-weight:normal;font-size:3.52777767px;font-family:'DejaVu Sans';-inkscape-font-specification:DejaVuSans;writing-mode:lr-tb;fill:#000000;fill-opacity:1;fill-rule:nonzero;stroke:none;stroke-width:0.35277778">
        <tspan
           style="stroke-width:0.35277778"
           id="tspan73407"
           sodipodi:role="line"
           y="292.10828"
           x="51.870979 54.114647 56.358315 58.601978">1000</tspan>
      </text>
      <path
         inkscape:connector-curvature="0"
         id="path73411"
         style="fill:#000000;fill-opacity:1;fill-rule:nonzero;stroke:#000000;stroke-width:0.28222221;stroke-linecap:butt;stroke-linejoin:round;stroke-miterlimit:10;stroke-dasharray:none;stroke-opacity:1"
         d="m 74.524252,286.95992 v 1.23473" />
      <text
         y="292.10828"
         x="70.037361"
         id="text73415"
         style="font-variant:normal;font-weight:normal;font-size:3.52777767px;font-family:'DejaVu Sans';-inkscape-font-specification:DejaVuSans;writing-mode:lr-tb;fill:#000000;fill-opacity:1;fill-rule:nonzero;stroke:none;stroke-width:0.35277778">
        <tspan
           style="stroke-width:0.35277778"
           id="tspan73413"
           sodipodi:role="line"
           y="292.10828"
           x="70.037361 72.281029 74.524696 76.768356">1500</tspan>
      </text>
      <g
         transform="matrix(0.35277777,0,0,-0.35277777,48.367597,296.93141)"
         id="g73417">
        <text
           id="text73421"
           style="font-style:italic;font-variant:normal;font-size:10px;font-family:'DejaVu Sans';-inkscape-font-specification:DejaVuSans-Oblique;writing-mode:lr-tb;fill:#000000;fill-opacity:1;fill-rule:nonzero;stroke:none"
           transform="matrix(1,0,0,-1,0,0.984375)">
          <tspan
             id="tspan73419"
             y="0"
             x="0">t</tspan>
        </text>
      </g>
      <path
         inkscape:connector-curvature="0"
         id="path73423"
         style="fill:#000000;fill-opacity:1;fill-rule:nonzero;stroke:#000000;stroke-width:0.28222221;stroke-linecap:butt;stroke-linejoin:round;stroke-miterlimit:10;stroke-dasharray:none;stroke-opacity:1"
         d="M 17.120306,284.02101 H 15.885584" />
      <text
         y="285.36047"
         x="9.0394907"
         id="text73427"
         style="font-variant:normal;font-weight:normal;font-size:3.52777767px;font-family:'DejaVu Sans';-inkscape-font-specification:DejaVuSans;writing-mode:lr-tb;fill:#000000;fill-opacity:1;fill-rule:nonzero;stroke:none;stroke-width:0.35277778">
        <tspan
           style="stroke-width:0.35277778"
           id="tspan73425"
           sodipodi:role="line"
           y="285.36047"
           x="9.0394907 11.283157 12.40499">0.0</tspan>
      </text>
      <path
         inkscape:connector-curvature="0"
         id="path73429"
         style="fill:#000000;fill-opacity:1;fill-rule:nonzero;stroke:#000000;stroke-width:0.28222221;stroke-linecap:butt;stroke-linejoin:round;stroke-miterlimit:10;stroke-dasharray:none;stroke-opacity:1"
         d="M 17.120306,269.77175 H 15.885584" />
      <text
         y="271.11121"
         x="9.0394907"
         id="text73433"
         style="font-variant:normal;font-weight:normal;font-size:3.52777767px;font-family:'DejaVu Sans';-inkscape-font-specification:DejaVuSans;writing-mode:lr-tb;fill:#000000;fill-opacity:1;fill-rule:nonzero;stroke:none;stroke-width:0.35277778">
        <tspan
           style="stroke-width:0.35277778"
           id="tspan73431"
           sodipodi:role="line"
           y="271.11121"
           x="9.0394907 11.283157 12.40499">0.5</tspan>
      </text>
      <path
         inkscape:connector-curvature="0"
         id="path73435"
         style="fill:#000000;fill-opacity:1;fill-rule:nonzero;stroke:#000000;stroke-width:0.28222221;stroke-linecap:butt;stroke-linejoin:round;stroke-miterlimit:10;stroke-dasharray:none;stroke-opacity:1"
         d="M 17.120306,255.52249 H 15.885584" />
      <text
         y="256.86194"
         x="9.0394907"
         id="text73439"
         style="font-variant:normal;font-weight:normal;font-size:3.52777767px;font-family:'DejaVu Sans';-inkscape-font-specification:DejaVuSans;writing-mode:lr-tb;fill:#000000;fill-opacity:1;fill-rule:nonzero;stroke:none;stroke-width:0.35277778">
        <tspan
           style="stroke-width:0.35277778"
           id="tspan73437"
           sodipodi:role="line"
           y="256.86194"
           x="9.0394907 11.283157 12.40499">1.0</tspan>
      </text>
      <path
         inkscape:connector-curvature="0"
         id="path73441"
         style="fill:#000000;fill-opacity:1;fill-rule:nonzero;stroke:#000000;stroke-width:0.28222221;stroke-linecap:butt;stroke-linejoin:round;stroke-miterlimit:10;stroke-dasharray:none;stroke-opacity:1"
         d="M 17.120306,241.27323 H 15.885584" />
      <text
         y="242.61269"
         x="9.0394907"
         id="text73445"
         style="font-variant:normal;font-weight:normal;font-size:3.52777767px;font-family:'DejaVu Sans';-inkscape-font-specification:DejaVuSans;writing-mode:lr-tb;fill:#000000;fill-opacity:1;fill-rule:nonzero;stroke:none;stroke-width:0.35277778">
        <tspan
           style="stroke-width:0.35277778"
           id="tspan73443"
           sodipodi:role="line"
           y="242.61269"
           x="9.0394907 11.283157 12.40499">1.5</tspan>
      </text>
      <path
         inkscape:connector-curvature="0"
         id="path73447"
         style="fill:#000000;fill-opacity:1;fill-rule:nonzero;stroke:#000000;stroke-width:0.28222221;stroke-linecap:butt;stroke-linejoin:round;stroke-miterlimit:10;stroke-dasharray:none;stroke-opacity:1"
         d="M 17.120306,227.02397 H 15.885584" />
      <text
         y="228.36342"
         x="9.0394907"
         id="text73451"
         style="font-variant:normal;font-weight:normal;font-size:3.52777767px;font-family:'DejaVu Sans';-inkscape-font-specification:DejaVuSans;writing-mode:lr-tb;fill:#000000;fill-opacity:1;fill-rule:nonzero;stroke:none;stroke-width:0.35277778">
        <tspan
           style="stroke-width:0.35277778"
           id="tspan73449"
           sodipodi:role="line"
           y="228.36342"
           x="9.0394907 11.283157 12.40499">2.0</tspan>
      </text>
      <g
         transform="matrix(0,-0.35277777,-0.35277777,0,6.5700459,255.08293)"
         id="g73453">
        <g
           transform="matrix(0.01,0,0,0.01,0,0.40625)"
           id="g73455">
          <g
             id="g73457">
            <g
               clip-path="url(#clipPath73463)"
               id="g73459">
              <path
                 inkscape:connector-curvature="0"
                 id="path73465"
                 style="fill:#000000;fill-opacity:1;fill-rule:nonzero;stroke:none"
                 d="m 188,449 c 26,33 66,64 122,94 21,11 61,17 121,17 66,0 114,-27 146,-79 31,-53 38,-122 22,-208 C 582,187 548,117 496,65 444,13 385,-13 319,-13 c -40,0 -73,8 -99,23 -26,15 -45,39 -57,72 L 106,-207 H 16 l 93,475 c 14,75 41,135 79,181 M 506,273 c 12,66 9,118 -11,156 -20,37 -54,56 -101,56 -48,0 -89,-19 -123,-56 -35,-38 -59,-90 -71,-156 -13,-66 -10,-118 10,-156 20,-38 53,-56 101,-56 48,0 89,18 124,56 34,38 57,90 71,156" />
            </g>
          </g>
        </g>
      </g>
      <g
         transform="matrix(0.35277777,0,0,-0.35277777,9.4499998e-7,301.76248)"
         id="g73467">
        <g
           clip-path="url(#clipPath73473)"
           id="g73469">
          <path
             inkscape:connector-curvature="0"
             id="path73475"
             style="fill:none;stroke:#000000;stroke-width:1.5;stroke-linecap:square;stroke-linejoin:round;stroke-miterlimit:10;stroke-dasharray:none;stroke-opacity:1"
             d="m 56.764091,50.492727 41.608164,81.389093 h 0.102991 l 8.651204,16.76252 h 0.10299 l 1.0299,2.01958 0.10299,-0.20196 9.26915,18.17622 0.10299,-0.20196 9.37214,18.17623 0.10299,-0.20196 0.20598,0.40392 0.10299,-0.40392 0.20598,0.40392 0.10299,-0.20196 1.02991,2.01958 0.10299,-0.60588 0.92691,1.81763 0.10299,-0.20196 2.05981,3.8372 0.10299,-0.40392 0.72093,1.21175 0.20598,-0.20196 4.01663,7.87637 0.103,-0.40392 1.75083,3.23133 h 0.10299 l 1.1329,2.22154 0.10299,-0.40392 0.10299,0.20196 0.10299,-0.20196 0.51495,1.00979 0.10299,-0.40391 0.30898,0.60587 0.10299,-0.20196 0.10299,0.20196 0.10299,-0.80783 1.0299,1.81762 0.10299,-0.20196 0.10299,0.20196 0.10299,-0.40391 1.02991,1.81762 0.10299,-0.80783 1.0299,2.01958 0.103,-1.61567 2.98672,5.65483 0.10299,-1.00979 0.72093,1.4137 0.10299,-2.62545 0.10299,0.20196 0.72094,1.21174 0.20598,-0.40391 0.30897,0.60587 0.10299,-1.00979 0.41196,0.60588 0.20598,-0.60588 1.02991,2.01958 0.10299,-0.20195 0.20598,0.40391 0.20598,-0.40391 0.10299,-0.20196 0.61795,1.21175 0.10299,-0.20196 0.51495,1.00979 0.10299,-0.40392 0.10299,0.20196 0.10299,-1.21175 0.20598,0.40392 0.10299,-0.40392 0.20598,0.40392 0.10299,-0.20196 0.30898,0.60587 0.10299,-0.20195 1.13289,2.22153 0.20598,-0.20195 0.10299,0.20195 0.10299,-0.40391 1.02991,1.81762 0.10299,-4.03916 0.10299,0.20196 0.41196,0.80783 0.10299,-1.21175 1.02991,1.81762 h 0.10299 l 0.20598,0.40392 0.10299,-0.80783 0.20598,0.40391 0.10299,-0.20195 0.20598,-2.22154 0.10299,0.20196 0.10299,-0.20196 0.41196,0.80783 0.10299,-0.20196 0.20599,0.40392 0.10299,-0.40392 0.61794,1.00979 0.10299,-0.40391 1.1329,2.01958 0.10299,-2.62546 0.10299,0.20196 0.10299,-0.80783 1.13289,2.01958 0.10299,-1.00979 0.20598,0.40391 0.10299,-1.00979 0.10299,-3.02937 0.103,0.20196 1.13289,2.01958 h 0.10299 l 0.10299,-1.61566 0.61794,1.21174 0.103,-0.60587 1.64784,3.02937 0.10299,-0.60587 0.30898,0.60587 0.10299,-0.40391 0.72093,1.21174 0.10299,-0.60587 1.0299,1.81762 0.103,-1.4137 0.51495,0.80783 0.10299,-0.60588 0.92691,1.81763 0.10299,-0.20196 0.41197,0.80783 0.10299,-1.00979 0.92691,1.81762 0.10299,-2.62545 0.10299,0.20196 0.10299,0.20195 0.10299,-1.21174 0.51496,1.00979 0.20598,-1.41371 0.82392,1.61566 0.20598,-1.61566 0.20598,-0.80783 0.41196,0.60587 h 0.103 l 0.10299,-1.4137 0.72093,1.4137 0.10299,-0.40391 0.10299,0.20195 0.10299,-0.20195 0.30897,0.60587 0.20598,-1.21175 0.51496,1.00979 0.10299,-0.60587 0.72093,1.4137 0.20598,-1.21174 1.1329,2.22153 0.10299,-3.02937 0.10299,0.20196 0.10299,0.20196 0.10299,-0.80783 0.30897,0.60587 0.10299,-0.20196 0.92691,1.61567 h 0.103 l 0.10299,0.20196 0.20598,-1.41371 0.72093,1.21175 0.20598,-2.22154 0.30897,0.60587 0.10299,-0.60587 0.30897,0.60587 0.103,-0.20195 0.20598,0.20195 0.20598,-0.40391 0.41196,0.80783 0.20598,-2.22154 1.23589,2.4235 0.10299,-3.63525 0.10299,0.20196 0.10299,0.20196 0.20598,-0.60588 0.10299,0.20196 0.61794,1.00979 0.10299,-0.60587 0.82393,1.4137 0.20598,-0.60587 0.41196,0.80783 0.10299,-0.60587 0.10299,0.20196 0.10299,-0.60588 0.41196,0.60588 0.10299,-0.60588 0.10299,0.20196 0.103,-1.41371 0.10299,0.20196 0.10299,-0.20196 0.20598,0.40392 0.10299,-0.20196 0.51495,1.00979 0.20598,-1.00979 0.10299,0.20196 1.23589,2.22154 0.20598,-0.80783 0.20598,0.40391 0.10299,-0.20196 0.92691,1.61567 0.103,-0.40392 0.41196,0.80784 0.20598,-0.20196 1.54486,2.82741 h 0.10299 l 0.20598,0.40392 0.10299,-1.21175 0.30897,0.60587 0.10299,-0.20196 0.61794,1.00979 0.10299,-2.22153 0.30897,0.60587 0.103,-0.40392 0.61794,1.21175 0.10299,-1.61566 0.92691,1.81762 0.10299,-1.41371 0.20599,0.40392 0.20598,-0.60587 1.75083,3.23132 0.103,-2.62545 0.10299,0.20196 0.30897,0.60587 0.10299,-1.21175 0.82392,1.61567 0.10299,-1.41371 0.10299,0.20196 0.30897,-2.22154 0.10299,0.20196 0.103,0.20196 0.10299,-0.20196 0.51495,0.80783 0.10299,-1.21175 0.72093,1.21175 0.10299,-3.8372 0.10299,0.20196 0.20598,0.40391 0.10299,-0.20196 0.92692,1.81763 0.41196,-1.81763 0.10299,0.20196 1.23589,2.22154 h 0.10299 l 0.30897,0.40392 0.10299,-2.01958 0.20598,0.40391 0.10299,-0.40391 0.72094,1.21175 0.10299,-1.0098 0.51495,0.80784 0.10299,-0.20196 0.82392,1.61566 0.10299,-1.21174 0.20598,0.40391 0.103,-1.21175 0.10299,0.20196 0.10299,-0.40392 0.82392,1.41371 0.20598,-1.81762 1.44187,2.62545 0.10299,-0.20195 0.10299,0.20195 0.10299,-0.20195 0.10299,-1.21175 1.44187,2.62545 0.20598,-0.40391 0.30897,0.60587 0.10299,-0.20196 0.41196,0.80783 0.10299,-0.40391 0.10299,0.20196 0.20598,-1.00979 h 0.103 l 0.10299,0.20195 0.10299,-0.80783 0.30897,0.60588 0.20598,-1.21175 v 0" />
        </g>
      </g>
      <g
         transform="matrix(0.35277777,0,0,-0.35277777,9.4499998e-7,301.76248)"
         id="g73477">
        <path
           inkscape:connector-curvature="0"
           id="path73479"
           style="fill:none;stroke:#000000;stroke-width:0.80000001;stroke-linecap:square;stroke-linejoin:miter;stroke-miterlimit:10;stroke-dasharray:none;stroke-opacity:1"
           d="M 48.53,41.96 V 229.68" />
        <path
           inkscape:connector-curvature="0"
           id="path73481"
           style="fill:none;stroke:#000000;stroke-width:0.80000001;stroke-linecap:square;stroke-linejoin:miter;stroke-miterlimit:10;stroke-dasharray:none;stroke-opacity:1"
           d="M 229.68,41.96 V 229.68" />
        <path
           inkscape:connector-curvature="0"
           id="path73483"
           style="fill:none;stroke:#000000;stroke-width:0.80000001;stroke-linecap:square;stroke-linejoin:miter;stroke-miterlimit:10;stroke-dasharray:none;stroke-opacity:1"
           d="M 48.53,41.96 H 229.68" />
        <path
           inkscape:connector-curvature="0"
           id="path73485"
           style="fill:none;stroke:#000000;stroke-width:0.80000001;stroke-linecap:square;stroke-linejoin:miter;stroke-miterlimit:10;stroke-dasharray:none;stroke-opacity:1"
           d="M 48.53,229.68 H 229.68" />
      </g>
    </g>
  </g>
</svg>
